<svg width="169" height="49" viewBox="0 0 169 49" fill="none" xmlns="http://www.w3.org/2000/svg">
<path d="M36.9749 40.92V46H34.1749V33.06H40.0149V35.48H36.9749V38.58H39.8149V40.92H36.9749ZM49.2753 35.5V43.56C49.2753 45.32 48.4487 46.2 46.7953 46.2H44.1353C42.482 46.2 41.6553 45.32 41.6553 43.56V35.5C41.6553 33.74 42.482 32.86 44.1353 32.86H46.7953C48.4487 32.86 49.2753 33.74 49.2753 35.5ZM46.4753 43.88V35.16C46.4753 35.0533 46.4353 34.96 46.3553 34.88C46.2887 34.8 46.202 34.76 46.0953 34.76H44.8353C44.7287 34.76 44.6353 34.8 44.5553 34.88C44.4887 34.96 44.4553 35.0533 44.4553 35.16V43.88C44.4553 43.9867 44.4887 44.08 44.5553 44.16C44.6353 44.24 44.7287 44.28 44.8353 44.28H46.0953C46.202 44.28 46.2887 44.24 46.3553 44.16C46.4353 44.08 46.4753 43.9867 46.4753 43.88ZM58.9628 35.5V43.56C58.9628 45.32 58.1362 46.2 56.4828 46.2H53.8228C52.1695 46.2 51.3428 45.32 51.3428 43.56V35.5C51.3428 33.74 52.1695 32.86 53.8228 32.86H56.4828C58.1362 32.86 58.9628 33.74 58.9628 35.5ZM56.1628 43.88V35.16C56.1628 35.0533 56.1228 34.96 56.0428 34.88C55.9762 34.8 55.8895 34.76 55.7828 34.76H54.5228C54.4162 34.76 54.3228 34.8 54.2428 34.88C54.1762 34.96 54.1428 35.0533 54.1428 35.16V43.88C54.1428 43.9867 54.1762 44.08 54.2428 44.16C54.3228 44.24 54.4162 44.28 54.5228 44.28H55.7828C55.8895 44.28 55.9762 44.24 56.0428 44.16C56.1228 44.08 56.1628 43.9867 56.1628 43.88ZM66.1703 33.06C67.8237 33.06 68.6503 33.94 68.6503 35.7V43.36C68.6503 45.12 67.8237 46 66.1703 46H61.0303V33.06H66.1703ZM65.8503 43.68V35.36C65.8503 35.2533 65.8103 35.16 65.7303 35.08C65.6637 35 65.577 34.96 65.4703 34.96H63.8303V44.08H65.4703C65.577 44.08 65.6637 44.04 65.7303 43.96C65.8103 43.88 65.8503 43.7867 65.8503 43.68ZM79.8203 33.06C81.4737 33.06 82.3003 33.94 82.3003 35.7V38.28C82.3003 40.04 81.4737 40.92 79.8203 40.92H77.5603V46H74.7603V33.06H79.8203ZM79.5003 38.6V35.38C79.5003 35.2733 79.4603 35.18 79.3803 35.1C79.3137 35.02 79.227 34.98 79.1203 34.98H77.5603V39H79.1203C79.227 39 79.3137 38.96 79.3803 38.88C79.4603 38.8 79.5003 38.7067 79.5003 38.6ZM86.5061 43.64H89.5661V46H83.7061V33.06H86.5061V43.64ZM96.0336 32.86C97.6869 32.86 98.5136 33.74 98.5136 35.5V46H95.7136V41.66H93.6936V46H90.8936V35.5C90.8936 33.74 91.7203 32.86 93.3736 32.86H96.0336ZM93.6936 39.5H95.7136V35.16C95.7136 35.0533 95.6736 34.96 95.5936 34.88C95.5269 34.8 95.4403 34.76 95.3336 34.76H94.0736C93.9669 34.76 93.8736 34.8 93.7936 34.88C93.7269 34.96 93.6936 35.0533 93.6936 35.16V39.5ZM108.021 46H105.221V35.26C105.221 35.1533 105.181 35.06 105.101 34.98C105.034 34.9 104.947 34.86 104.841 34.86H103.761C103.654 34.86 103.561 34.9 103.481 34.98C103.414 35.06 103.381 35.1533 103.381 35.26V46H100.581V35.5C100.581 33.74 101.407 32.86 103.061 32.86H105.541C107.194 32.86 108.021 33.74 108.021 35.5V46ZM117.318 46H114.518V35.26C114.518 35.1533 114.478 35.06 114.398 34.98C114.331 34.9 114.244 34.86 114.138 34.86H113.058C112.951 34.86 112.858 34.9 112.778 34.98C112.711 35.06 112.678 35.1533 112.678 35.26V46H109.878V35.5C109.878 33.74 110.704 32.86 112.358 32.86H114.838C116.491 32.86 117.318 33.74 117.318 35.5V46ZM121.994 43.68H125.094V46H119.194V33.06H125.094V35.34H121.994V38.38H124.894V40.58H121.994V43.68ZM129.514 40.7V46H126.714V33.06H131.694C133.347 33.06 134.174 33.94 134.174 35.7V37.2C134.174 38.2667 133.794 38.9467 133.034 39.24C133.701 39.48 134.034 40.0267 134.034 40.88V46H131.234V41.1C131.234 40.8333 131.107 40.7 130.854 40.7H129.514ZM129.514 34.96V38.74H130.994C131.101 38.74 131.187 38.7 131.254 38.62C131.334 38.54 131.374 38.4467 131.374 38.34V35.36C131.374 35.2533 131.334 35.16 131.254 35.08C131.187 35 131.101 34.96 130.994 34.96H129.514Z" fill="#6EAA3B"/>
<path d="M38.2824 29H33.8024V12.2C33.8024 9.384 35.125 7.976 37.7704 7.976H40.1384C41.6957 7.976 42.805 8.488 43.4664 9.512C44.085 8.488 45.1944 7.976 46.7944 7.976H49.1624C51.8077 7.976 53.1304 9.384 53.1304 12.2V29H48.6504V11.816C48.6504 11.6453 48.5864 11.496 48.4584 11.368C48.3517 11.24 48.213 11.176 48.0424 11.176H46.3144C46.1437 11.176 45.9944 11.24 45.8664 11.368C45.7597 11.496 45.7064 11.6453 45.7064 11.816V29H41.2264V11.816C41.2264 11.6453 41.1624 11.496 41.0344 11.368C40.9277 11.24 40.789 11.176 40.6184 11.176H38.8904C38.7197 11.176 38.5704 11.24 38.4424 11.368C38.3357 11.496 38.2824 11.6453 38.2824 11.816V29ZM68.2094 8.296L63.7614 21.448V29H59.2814V21.448L54.8334 8.296H59.0574L61.5214 16.936L63.9854 8.296H68.2094ZM84.2324 8.296H88.2004L90.6004 23.88L92.3924 8.296H96.7444L93.3844 29H88.2964L86.2164 16.296L84.1364 29H79.0484L75.6884 8.296H80.0404L81.8324 23.88L84.2324 8.296ZM103.689 25.288H108.649V29H99.2094V8.296H108.649V11.944H103.689V16.808H108.329V20.328H103.689V25.288ZM115.721 25.288H120.681V29H111.241V8.296H120.681V11.944H115.721V16.808H120.361V20.328H115.721V25.288ZM136.168 8.296L132.648 17.8L136.84 29H132.264L129.192 20.808H127.752V29H123.272V8.296H127.752V16.968H128.84L132.072 8.296H136.168Z" fill="#F08419"/>
</svg>
